<svg viewBox="0 0 2000 1000" xmlns="http://www.w3.org/2000/svg"><defs><filter id="b" x="-200%" y="-200%" width="500%" height="500%"><feGaussianBlur in="SourceGraphic" stdDeviation="20"/></filter></defs><path fill="#162936" d="M0 0h2000v1000H0z"/><ellipse cx="118.782" cy="58.616" rx="2.113" ry="1.983" fill="#fff" opacity="-.031"/><ellipse cx="354.975" cy="63.4" rx="1.309" ry="1.265" fill="#fff" opacity=".112"/><ellipse cx="440.972" cy="91.606" rx="1.259" ry="1.121" fill="#fff" opacity=".414"/><ellipse cx="726.509" cy="39.891" rx="1.6" ry="1.252" fill="#fff" opacity=".174"/><ellipse cx="865.335" cy="77.842" rx="1.959" ry="1.887" fill="#fff" opacity=".457"/><ellipse cx="1186.215" cy="50.755" rx="1.787" ry="1.73" fill="#fff" opacity=".798"/><ellipse cx="1307.966" cy="33.585" rx="2.351" ry="1.924" fill="#fff" opacity=".735"/><ellipse cx="1457.798" cy="41.53" rx="1.646" ry="1.475" fill="#fff" opacity=".044"/><ellipse cx="1734.6" cy="68.356" rx="1.774" ry="1.511" fill="#fff" opacity="-.151"/><ellipse cx="1949.477" cy="35.856" rx="1.508" ry="1.399" fill="#fff" opacity=".72"/><ellipse cx="77.244" cy="114.253" rx="1.641" ry="1.231" fill="#fff" opacity=".351"/><ellipse cx="210.649" cy="188.733" rx="1.686" ry="1.354" fill="#fff" opacity=".115"/><ellipse cx="503.135" cy="138.428" rx="2.151" ry="1.835" fill="#fff" opacity=".519"/><ellipse cx="740.06" cy="132.282" rx="1.613" ry="1.551" fill="#fff" opacity=".741"/><ellipse cx="962.841" cy="140.813" rx="1.789" ry="1.415" fill="#fff" opacity=".531"/><ellipse cx="1056.487" cy="189.89" rx="1.563" ry="1.222" fill="#fff" opacity="-.101"/><ellipse cx="1353.84" cy="111.725" rx="1.218" ry="1.084" fill="#fff" opacity=".001"/><ellipse cx="1437.447" cy="155.172" rx="1.562" ry="1.26" fill="#fff" opacity=".064"/><ellipse cx="1649.098" cy="171.438" rx="2.303" ry="1.816" fill="#fff" opacity="-.03"/><ellipse cx="1853.811" cy="184.616" rx="2.072" ry="1.608" fill="#fff" opacity=".388"/><ellipse cx="46.535" cy="255.324" rx="1.43" ry="1.272" fill="#fff" opacity=".775"/><ellipse cx="338.457" cy="235.999" rx="1.948" ry="1.561" fill="#fff" opacity=".647"/><ellipse cx="514.421" cy="214.66" rx="1.747" ry="1.738" fill="#fff" opacity=".352"/><ellipse cx="676.568" cy="242.445" rx="1.372" ry="1.349" fill="#fff" opacity=".673"/><ellipse cx="848.594" cy="215.158" rx="2.008" ry="1.769" fill="#fff" opacity=".694"/><ellipse cx="1071.311" cy="293.619" rx="1.377" ry="1.15" fill="#fff" opacity=".376"/><ellipse cx="1272.26" cy="207.844" rx="1.895" ry="1.413" fill="#fff" opacity="-.105"/><ellipse cx="1547.308" cy="278.863" rx="1.604" ry="1.437" fill="#fff" opacity=".19"/><ellipse cx="1797.2" cy="234.801" rx="1.561" ry="1.095" fill="#fff" opacity=".302"/><ellipse cx="1867.451" cy="205.664" rx="1.264" ry="1.088" fill="#fff" opacity=".629"/><ellipse cx="121.972" cy="306.335" rx="1.471" ry="1.328" fill="#fff" opacity=".734"/><ellipse cx="384.001" cy="358.186" rx="1.392" ry="1.372" fill="#fff" opacity=".319"/><ellipse cx="486.87" cy="326.31" rx="1.94" ry="1.611" fill="#fff" opacity="-.101"/><ellipse cx="724.963" cy="326.348" rx="1.618" ry="1.359" fill="#fff" opacity=".461"/><ellipse cx="903.357" cy="315.444" rx="1.454" ry="1.432" fill="#fff" opacity=".247"/><ellipse cx="1178.727" cy="389.322" rx="2.406" ry="1.957" fill="#fff" opacity=".097"/><ellipse cx="1299.333" cy="332.328" rx="1.191" ry="1.046" fill="#fff" opacity=".269"/><ellipse cx="1509.933" cy="347.75" rx="2.121" ry="1.653" fill="#fff" opacity="-.049"/><ellipse cx="1632.647" cy="342.044" rx="2.139" ry="1.785" fill="#fff" opacity=".674"/><ellipse cx="1967.94" cy="357.447" rx="2.082" ry="1.973" fill="#fff" opacity=".806"/><ellipse cx="53.401" cy="460.076" rx="2.179" ry="1.825" fill="#fff" opacity=".944"/><ellipse cx="255.637" cy="410.706" rx="1.43" ry="1.283" fill="#fff" opacity=".621"/><ellipse cx="414.716" cy="440.499" rx="1.723" ry="1.506" fill="#fff" opacity=".445"/><ellipse cx="634.482" cy="415.072" rx="1.292" ry="1.043" fill="#fff" opacity=".694"/><ellipse cx="966.089" cy="481.124" rx="2.074" ry="1.755" fill="#fff" opacity=".855"/><ellipse cx="1029.136" cy="485.243" rx="1.97" ry="1.713" fill="#fff" opacity=".132"/><ellipse cx="1222.766" cy="453.074" rx="1.267" ry="1.215" fill="#fff" opacity=".815"/><ellipse cx="1423.076" cy="465.96" rx="1.777" ry="1.646" fill="#fff" opacity=".327"/><ellipse cx="1635.651" cy="401.197" rx="1.612" ry="1.121" fill="#fff" opacity=".683"/><ellipse cx="1839.615" cy="411.356" rx="2.293" ry="1.989" fill="#fff" opacity=".711"/><ellipse cx="39.104" cy="582.621" rx="1.153" ry="1.143" fill="#fff" opacity=".071"/><ellipse cx="223.392" cy="514.943" rx="1.43" ry="1.238" fill="#fff" opacity="-.198"/><ellipse cx="424.605" cy="529.41" rx="1.307" ry="1.299" fill="#fff" opacity="-.055"/><ellipse cx="798.288" cy="513.335" rx="2.133" ry="1.897" fill="#fff" opacity="-.242"/><ellipse cx="932.105" cy="529.094" rx="1.237" ry="1.098" fill="#fff" opacity=".014"/><ellipse cx="1079.299" cy="591.823" rx="1.459" ry="1.361" fill="#fff" opacity=".408"/><ellipse cx="1302.117" cy="518.409" rx="1.505" ry="1.223" fill="#fff" opacity=".376"/><ellipse cx="1451.692" cy="533.193" rx="1.357" ry="1.262" fill="#fff" opacity="-.197"/><ellipse cx="1691.309" cy="521.673" rx="1.331" ry="1.071" fill="#fff" opacity=".045"/><ellipse cx="1909.932" cy="520.185" rx="1.382" ry="1.082" fill="#fff" opacity="-.001"/><ellipse cx="142.206" cy="625.412" rx="2.041" ry="1.602" fill="#fff" opacity="-.265"/><ellipse cx="303.164" cy="681.37" rx="1.963" ry="1.783" fill="#fff" opacity=".329"/><ellipse cx="457.172" cy="609.34" rx="1.838" ry="1.339" fill="#fff" opacity="-.222"/><ellipse cx="611.089" cy="664.823" rx="1.743" ry="1.343" fill="#fff" opacity=".123"/><ellipse cx="998.783" cy="604.696" rx="1.843" ry="1.796" fill="#fff" opacity=".138"/><ellipse cx="1036.279" cy="615.925" rx="1.536" ry="1.355" fill="#fff" opacity=".71"/><ellipse cx="1295.254" cy="615.251" rx="1.633" ry="1.192" fill="#fff" opacity=".409"/><ellipse cx="1454.965" cy="667.535" rx="1.79" ry="1.412" fill="#fff" opacity=".208"/><ellipse cx="1678.234" cy="635.969" rx="2.077" ry="1.98" fill="#fff" opacity=".529"/><ellipse cx="1902.201" cy="661.486" rx="1.985" ry="1.947" fill="#fff" opacity=".219"/><ellipse cx="169.676" cy="726.971" rx="1.77" ry="1.571" fill="#fff" opacity=".87"/><ellipse cx="307.163" cy="704.59" rx="1.931" ry="1.516" fill="#fff" opacity="-.008"/><ellipse cx="428.099" cy="735.873" rx="2.179" ry="1.935" fill="#fff" opacity="-.154"/><ellipse cx="684.012" cy="755.966" rx="1.819" ry="1.358" fill="#fff" opacity=".608"/><ellipse cx="823.638" cy="764.125" rx="2.459" ry="1.984" fill="#fff" opacity=".566"/><ellipse cx="1086.565" cy="746.26" rx="1.675" ry="1.363" fill="#fff" opacity=".486"/><ellipse cx="1365.648" cy="764.469" rx="1.893" ry="1.858" fill="#fff" opacity=".666"/><ellipse cx="1528.134" cy="724.78" rx="2.067" ry="1.683" fill="#fff" opacity=".21"/><ellipse cx="1678.569" cy="756.989" rx="1.42" ry="1.071" fill="#fff" opacity=".798"/><ellipse cx="1836.942" cy="757.529" rx="1.454" ry="1.223" fill="#fff" opacity=".785"/><ellipse cx="1.486" cy="844.217" rx="2.414" ry="1.965" fill="#fff" opacity=".505"/><ellipse cx="338.787" cy="899.192" rx="1.623" ry="1.575" fill="#fff" opacity=".588"/><ellipse cx="496.772" cy="826.427" rx="1.435" ry="1.2" fill="#fff" opacity=".202"/><ellipse cx="752.567" cy="840.623" rx="1.748" ry="1.497" fill="#fff" opacity="-.103"/><ellipse cx="963.409" cy="826.866" rx="1.928" ry="1.764" fill="#fff" opacity=".145"/><ellipse cx="1165.957" cy="813.238" rx="1.851" ry="1.475" fill="#fff" opacity=".319"/><ellipse cx="1231.735" cy="879.2" rx="1.232" ry="1.094" fill="#fff" opacity=".656"/><ellipse cx="1413.087" cy="847.351" rx="2.358" ry="1.985" fill="#fff" opacity=".351"/><ellipse cx="1706.545" cy="810.984" rx="1.978" ry="1.764" fill="#fff" opacity=".619"/><ellipse cx="1951.874" cy="841.878" rx="2.09" ry="1.736" fill="#fff" opacity=".85"/><ellipse cx="23.786" cy="905.565" rx="2.171" ry="1.805" fill="#fff" opacity=".206"/><ellipse cx="324.847" cy="936.198" rx="1.958" ry="1.644" fill="#fff" opacity=".059"/><ellipse cx="409.634" cy="935.56" rx="1.75" ry="1.579" fill="#fff" opacity=".692"/><ellipse cx="712.93" cy="903.906" rx="1.792" ry="1.493" fill="#fff" opacity=".647"/><ellipse cx="922.633" cy="905.327" rx="1.845" ry="1.733" fill="#fff" opacity=".323"/><ellipse cx="1017.924" cy="993.364" rx="1.371" ry="1.008" fill="#fff" opacity=".234"/><ellipse cx="1220.09" cy="969.976" rx="1.911" ry="1.536" fill="#fff" opacity=".395"/><ellipse cx="1494.788" cy="972.421" rx="1.644" ry="1.315" fill="#fff" opacity=".595"/><ellipse cx="1741.417" cy="994.601" rx="1.808" ry="1.776" fill="#fff" opacity=".124"/><ellipse cx="1958.673" cy="964.605" rx="2.174" ry="1.826" fill="#fff" opacity="-.163"/><g transform="rotate(-56.667 442.383 -131.74)"><defs><linearGradient id="a" x1="0" y1="1" x2="159.512" y2="1" gradientUnits="userSpaceOnUse"><stop stop-color="#fff"/><stop offset=".3" stop-color="#fff" stop-opacity=".1"/><stop offset=".7" stop-color="#fff" stop-opacity="0"/></linearGradient></defs><rect x="-7.976" y="-8.1" width="63.805" height="16.2" rx="16.2" ry="16.2" fill="url(#a)" filter="url(#b)" opacity=".4"/><rect width="95.707" height="3.6" rx="3.6" ry="3.6" fill="url(#a)"/></g><g transform="rotate(-64.912 707.667 -573.552)" fill="url(#a)"><rect x="-7.593" y="-8.1" width="60.746" height="16.2" rx="16.2" ry="16.2" filter="url(#b)" opacity=".4"/><rect width="91.118" height="3.6" rx="3.6" ry="3.6"/></g><g transform="rotate(-59.113 1203.313 -1636.263)" fill="url(#a)"><rect x="-7.544" y="-8.1" width="60.355" height="16.2" rx="16.2" ry="16.2" filter="url(#b)" opacity=".4"/><rect width="90.533" height="3.6" rx="3.6" ry="3.6"/></g></svg>